<svg xmlns="http://www.w3.org/2000/svg" viewBox="0 0 1200 630" width="1200" height="630" role="img" aria-label="Avizo - Votre reputation locale, en pilote automatique">
  <defs>
    <linearGradient id="bg" x1="0" y1="0" x2="1" y2="1">
      <stop offset="0%" stop-color="#5B5BF7"/>
      <stop offset="100%" stop-color="#9B5BF7"/>
    </linearGradient>
  </defs>
  <rect width="1200" height="630" fill="url(#bg)"/>
  <!-- Icone (bulle blanche + etoile violette) -->
  <g transform="translate(120,210) scale(3.2)">
    <path fill="#FFFFFF"
          d="M20 6 h24 a14 14 0 0 1 14 14 v10 a14 14 0 0 1 -14 14 H34 l-9 9 v-9 h-5 A14 14 0 0 1 6 30 V20 A14 14 0 0 1 20 6 Z"/>
    <polygon fill="#6B5BF7"
             points="32,12 35.06,20.79 44.36,20.98 36.95,26.61 39.64,35.52 32,30.2 24.36,35.52 27.05,26.61 19.64,20.98 28.94,20.79"/>
  </g>
  <text x="350" y="300" font-family="'Poppins','Segoe UI',Arial,sans-serif" font-size="96" font-weight="700" fill="#FFFFFF">Avizo</text>
  <text x="352" y="370" font-family="'Inter','Segoe UI',Arial,sans-serif" font-size="36" font-weight="500" fill="#EDEBFF">Votre réputation locale, en pilote automatique.</text>
  <text x="352" y="430" font-family="'Inter','Segoe UI',Arial,sans-serif" font-size="26" font-weight="400" fill="#D6D2FF">Avis Google · SMS marketing · Fidélisation</text>
</svg>
